<?xml version="1.0" standalone="no"?>
<!DOCTYPE svg PUBLIC "-//W3C//DTD SVG 20010904//EN"
 "http://www.w3.org/TR/2001/REC-SVG-20010904/DTD/svg10.dtd">
<svg version="1.0" xmlns="http://www.w3.org/2000/svg"
 width="1020.000000pt" height="1280.000000pt" viewBox="0 0 1020.000000 1280.000000"
 preserveAspectRatio="xMidYMid meet">
<g transform="translate(0.000000,1280.000000) scale(0.100000,-0.100000)"
fill="#000000" stroke="none">
<path d="M3785 12776 c-121 -39 -193 -83 -290 -181 -95 -95 -150 -177 -202
-305 -82 -199 -82 -393 2 -626 19 -53 32 -101 29 -105 -2 -4 -39 14 -82 40
-193 120 -268 145 -442 145 -102 1 -138 -3 -196 -21 -39 -13 -79 -32 -89 -43
-18 -19 -17 -20 21 -36 21 -9 75 -30 119 -46 211 -78 429 -210 532 -322 73
-79 130 -185 115 -212 -6 -11 -63 -64 -129 -119 -65 -55 -152 -133 -194 -175
-71 -70 -220 -260 -241 -306 -8 -16 2 -51 40 -155 119 -317 296 -980 387
-1449 56 -290 133 -859 119 -882 -10 -16 -24 -6 -71 55 -144 183 -295 417
-422 654 -297 549 -657 1462 -911 2307 -80 266 -114 356 -138 364 -21 7 -77
-62 -125 -155 -153 -298 -208 -668 -162 -1100 45 -423 48 -521 16 -487 -18 18
-185 332 -295 554 -155 312 -234 502 -336 811 -89 270 -107 314 -136 344 -15
15 -19 14 -47 -12 -39 -36 -100 -167 -126 -268 -40 -157 -53 -312 -48 -555 3
-138 11 -264 21 -325 48 -292 155 -624 287 -887 41 -81 46 -98 29 -98 -20 0
-505 375 -639 494 -92 82 -134 88 -166 26 -20 -39 -19 -82 6 -181 46 -187 97
-283 271 -511 261 -342 588 -660 1128 -1094 413 -332 789 -588 1079 -734 47
-23 81 -46 78 -53 -6 -19 -222 -21 -331 -2 -50 9 -176 44 -281 79 -500 167
-731 286 -1099 565 -169 129 -211 155 -226 146 -15 -9 -4 -60 37 -180 93 -268
212 -443 371 -545 39 -25 71 -51 71 -57 1 -7 -1 -13 -3 -13 -26 0 -236 -47
-295 -65 -158 -50 -337 -189 -438 -340 -86 -128 -163 -313 -163 -391 0 -59 23
-49 263 113 203 137 335 193 527 223 88 13 302 10 307 -5 2 -6 -16 -20 -40
-32 -64 -31 -151 -116 -201 -196 -83 -134 -129 -317 -142 -566 -6 -126 2 -181
27 -181 20 0 73 66 221 273 208 293 314 397 483 478 83 40 179 69 226 69 23 0
30 -6 40 -37 88 -272 446 -695 968 -1142 253 -218 501 -396 766 -550 77 -45
142 -87 146 -94 3 -6 0 -156 -7 -332 -7 -176 -18 -439 -23 -585 -6 -146 -16
-382 -21 -525 -6 -143 -15 -375 -20 -515 -6 -140 -21 -536 -35 -879 -16 -398
-28 -627 -35 -631 -6 -4 -39 0 -73 7 -93 20 -274 28 -326 14 -57 -16 -91 -51
-91 -94 0 -67 86 -116 295 -170 84 -22 130 -39 136 -50 17 -30 139 -396 185
-555 50 -172 86 -253 136 -298 41 -38 83 -64 102 -64 22 0 85 40 96 60 30 56
-8 235 -106 497 -37 98 -73 190 -80 205 -17 33 -18 58 -3 58 7 0 87 -30 178
-66 261 -104 575 -206 652 -212 63 -4 68 -3 84 21 71 109 -225 296 -817 517
-48 18 -89 37 -91 44 -2 6 2 61 9 121 7 61 19 198 28 305 23 294 25 333 126
2170 22 410 43 755 46 768 2 12 9 22 16 22 6 0 63 -20 127 -44 273 -104 635
-186 825 -186 28 0 57 -4 64 -8 10 -7 10 -275 -3 -1413 -9 -772 -18 -1446 -21
-1496 l-6 -93 -61 0 c-104 0 -299 -19 -362 -35 -135 -34 -209 -93 -203 -160 6
-66 112 -92 416 -102 l213 -6 93 -111 c51 -61 154 -191 230 -288 75 -98 161
-204 192 -237 69 -75 166 -141 206 -141 72 0 136 71 123 138 -17 93 -135 270
-309 461 -47 52 -86 98 -86 103 0 11 2 11 162 -17 133 -23 390 -55 570 -71
163 -14 248 18 234 89 -13 64 -93 117 -260 171 -145 48 -430 109 -680 146 -71
11 -134 24 -139 29 -6 6 -3 112 7 278 10 180 19 617 26 1333 6 586 14 1155 18
1265 l7 200 100 36 c400 144 699 432 1039 995 45 76 87 139 92 141 6 2 32 -36
59 -84 226 -408 539 -888 759 -1163 124 -154 429 -462 515 -520 203 -135 446
-172 404 -60 -6 16 -49 89 -96 162 -81 127 -260 435 -306 525 -13 26 -17 43
-10 43 6 0 68 -36 138 -81 69 -44 198 -116 286 -159 252 -124 427 -183 675
-227 126 -23 174 -26 365 -27 200 -1 227 1 298 22 92 26 156 57 164 78 11 29
-34 58 -283 179 -382 188 -625 338 -1086 675 -83 60 -107 90 -74 90 21 0 134
-24 373 -81 265 -62 382 -79 553 -79 261 0 538 62 646 145 l34 26 -27 23 c-35
29 -126 74 -313 157 -192 84 -727 351 -965 482 -677 372 -1125 677 -1446 985
l-94 90 29 79 c86 231 197 578 234 728 57 235 94 443 152 845 96 680 128 1041
150 1705 15 466 13 640 -7 683 -38 83 -200 218 -388 324 -55 32 -123 82 -173
130 -290 272 -607 412 -768 339 -37 -17 -84 -66 -84 -88 0 -5 -6 -17 -12 -26
-12 -16 -33 -14 -313 23 -426 57 -512 63 -810 57 -389 -9 -745 -48 -1218 -133
-156 -29 -159 -28 -176 41 -35 140 19 307 152 465 112 134 243 230 407 301 47
20 85 43 85 50 0 22 -61 47 -133 55 -85 9 -248 -11 -334 -40 -138 -48 -285
-175 -385 -332 -72 -115 -83 -102 -83 99 0 315 37 453 182 674 33 50 58 100
56 110 -5 26 -50 26 -133 -1z"/>
</g>
</svg>
